<svg width="54" height="54" viewBox="0 0 54 54" fill="none" xmlns="http://www.w3.org/2000/svg">
    <path d="M1.54416 1.54416C3.10625 -0.0179341 5.63891 -0.0179355 7.20101 1.54416L52.4558 46.799C54.0179 48.3611 54.0179 50.8938 52.4558 52.4558C50.8937 54.0179 48.3611 54.0179 46.799 52.4558L1.54416 7.20102C-0.0179394 5.63892 -0.0179394 3.10626 1.54416 1.54416Z" fill="#F24E1E"/>
    <path d="M52.4558 1.54416C54.0179 3.10626 54.0179 5.63892 52.4558 7.20102L7.20101 52.4558C5.63891 54.0179 3.10625 54.0179 1.54415 52.4558C-0.0179448 50.8937 -0.0179421 48.3611 1.54415 46.799L46.799 1.54416C48.3611 -0.0179341 50.8937 -0.0179342 52.4558 1.54416Z" fill="#F24E1E"/>
</svg>
